<svg id="Capa_1" enable-background="new 0 0 512 512" height="512" viewBox="0 0 512 512" width="512" xmlns="http://www.w3.org/2000/svg"><g><g><g><g><g><g><g><path d="m417.297 454.805c57.782-46.937 94.703-118.559 94.703-198.805 0-141.385-114.615-256-256-256s-256 114.615-256 256c0 80.246 36.921 151.868 94.703 198.806z" fill="#ff583e"/></g></g></g></g></g></g><path d="m417.296 454.805c52.358-42.532 87.588-105.332 93.741-176.45l-189.303-189.367-1.712-1.648-119.129 90.076-61.38-61.38-28.192 55.118 42.133 42.133-10.089 7.628 58.931 58.931-7.776 5.886 1.777 1.826 176.388 176.342z" fill="#db0404"/><g><path d="m214.658 338.661c-1.552.804-3.226 1.421-4.997 1.813l-57.714 12.775c-16.311 3.61-29.486 15.596-34.619 31.493l-22.624 70.064c44.023 35.761 100.157 57.194 161.296 57.194.934 0 1.863-.021 2.795-.031v-173.308z" fill="#e9edf5"/></g><g><path d="m417.297 454.805-22.624-70.064c-5.133-15.897-18.308-27.883-34.619-31.493l-57.714-12.775c-1.772-.392-3.446-1.008-4.997-1.813h-41.698v173.335c.119 0 .237.004.356.004 61.138.001 117.271-21.432 161.296-57.194z" fill="#cdd2e1"/></g><g><circle cx="175.194" cy="169.708" fill="#414952" r="60.29"/></g><g><path d="m286.299 320.494v-37.652h-60.597v37.652c0 7.783-4.387 14.717-11.044 18.167l41.342 71.457 41.342-71.457c-6.656-3.45-11.043-10.384-11.043-18.167z" fill="#ffbeaa"/></g><g><path d="m297.342 338.661c-6.656-3.45-11.044-10.384-11.044-18.167v-37.652h-30.655v126.661l.356.615z" fill="#faa68e"/></g><g><path d="m156.92 154.923c-2.39-1.909-4.94-3.424-7.544-4.546 2.605-1.121 5.155-2.637 7.544-4.546 5.64-4.505 9.339-10.363 10.786-16.232-6.043.114-12.574 2.428-18.214 6.933-1.737 1.388-3.29 2.904-4.65 4.509.406-2.064.621-4.224.621-6.447 0-7.218-2.268-13.765-5.951-18.558-3.683 4.793-5.951 11.34-5.951 18.558 0 2.223.215 4.382.621 6.446-1.36-1.605-2.912-3.12-4.648-4.507-5.64-4.505-12.17-6.818-18.214-6.933 1.447 5.869 5.147 11.727 10.786 16.232 2.39 1.909 4.94 3.424 7.544 4.546-2.605 1.121-5.155 2.637-7.544 4.546-5.64 4.505-9.339 10.363-10.786 16.232 6.043-.114 12.574-2.428 18.214-6.933 1.737-1.387 3.289-2.903 4.648-4.507-.405 2.064-.621 4.222-.621 6.445 0 7.218 2.268 13.765 5.951 18.558 3.682-4.793 5.951-11.34 5.951-18.558 0-2.223-.215-4.383-.621-6.447 1.36 1.605 2.913 3.121 4.65 4.509 5.64 4.505 12.17 6.818 18.214 6.933-1.447-5.87-5.146-11.728-10.786-16.233z" fill="#fff"/></g><g><path d="m311.474 255.47c20.73 0 37.802-16.657 37.89-37.388.001-.134.001-.269.001-.403v-62.389c0-51.564-41.801-93.365-93.365-93.365-51.564 0-93.365 41.801-93.365 93.365v62.389c0 .135 0 .269.001.403.088 20.73 17.16 37.388 37.89 37.388z" fill="#555a66"/></g><g><path d="m256 61.926c-.119 0-.237.004-.356.005v193.54h55.83c20.73 0 37.802-16.657 37.89-37.388.001-.134.001-.269.001-.403v-62.389c0-51.564-41.801-93.365-93.365-93.365z" fill="#333940"/></g><g><path d="m256 312.214c-46.732 0-84.616-37.884-84.616-84.616v-27.918c0-46.732 37.884-84.616 84.615-84.616 46.732 0 84.616 37.884 84.616 84.616v27.918c.001 46.733-37.883 84.616-84.615 84.616z" fill="#ffcdbe"/></g><g><path d="m256 115.065c-.12 0-.237.008-.356.009v197.132c.119 0 .237.009.356.009 46.732 0 84.616-37.884 84.616-84.616v-27.919c0-46.732-37.884-84.615-84.616-84.615z" fill="#ffbeaa"/></g><g><g><path d="m254.828 407.4h-27.32l-32.988-67.522 28.492-13.92z" fill="#fff"/></g><g><path d="m257.172 407.4h27.32l32.988-67.522-28.492-13.92z" fill="#e9edf5"/></g></g><g><ellipse cx="256" cy="422.498" fill="#ffce00" rx="26.7" ry="26.701" transform="matrix(.141 -.99 .99 .141 -198.309 616.518)"/></g><g><path d="m256 395.797c-.119 0-.237.007-.356.009v53.383c.119.002.237.009.356.009 14.746 0 26.701-11.954 26.701-26.7 0-14.747-11.955-26.701-26.701-26.701z" fill="#fdba12"/></g><g><circle cx="256" cy="478.701" fill="#ffce00" r="8.692"/></g><g><path d="m256 470.009c-.12 0-.237.013-.356.018v17.347c.119.005.236.018.356.018 4.8 0 8.692-3.891 8.692-8.692 0-4.8-3.892-8.691-8.692-8.691z" fill="#fdba12"/></g><g><g><ellipse cx="276.671" cy="449.198" fill="#ffa300" rx="20.671" ry="9.826"/></g><g><ellipse cx="235.329" cy="449.198" fill="#fdba12" rx="20.671" ry="9.826"/></g></g></g></svg>